<mxfile host="65bd71144e">
    <diagram id="wZHjFRdZciOuKaugSXcP" name="Page-1">
        <mxGraphModel dx="820" dy="614" grid="1" gridSize="10" guides="1" tooltips="1" connect="1" arrows="1" fold="1" page="1" pageScale="1" pageWidth="850" pageHeight="1100" background="none" math="0" shadow="0">
            <root>
                <mxCell id="0"/>
                <mxCell id="1" parent="0"/>
                <mxCell id="5" value="" style="shape=trapezoid;perimeter=trapezoidPerimeter;whiteSpace=wrap;html=1;fixedSize=1;rotation=-240;fillColor=#ffa500;" vertex="1" parent="1">
                    <mxGeometry x="80" y="260" width="200" height="20" as="geometry"/>
                </mxCell>
                <mxCell id="6" value="" style="shape=trapezoid;perimeter=trapezoidPerimeter;whiteSpace=wrap;html=1;fixedSize=1;rotation=-115;" vertex="1" parent="1">
                    <mxGeometry x="192.89" y="295.47" width="120" height="20" as="geometry"/>
                </mxCell>
                <mxCell id="11" value="&lt;span style=&quot;font-size: 100px;&quot;&gt;&lt;font&gt;&lt;b&gt;kory&lt;/b&gt;&lt;/font&gt;&lt;/span&gt;" style="text;html=1;align=center;verticalAlign=middle;resizable=0;points=[];autosize=1;strokeColor=none;fillColor=none;fontColor=#1A1A1A;" vertex="1" parent="1">
                    <mxGeometry x="260" y="180" width="230" height="130" as="geometry"/>
                </mxCell>
                <mxCell id="12" value="&lt;font style=&quot;font-size: 30px;&quot;&gt;HOTEL&lt;/font&gt;" style="text;html=1;align=center;verticalAlign=middle;resizable=0;points=[];autosize=1;strokeColor=none;fillColor=none;fontSize=30;fontColor=#FFA500;" vertex="1" parent="1">
                    <mxGeometry x="315" y="310" width="120" height="50" as="geometry"/>
                </mxCell>
                <mxCell id="13" value="" style="rounded=0;whiteSpace=wrap;html=1;fontSize=30;fillColor=none;strokeColor=none;" vertex="1" parent="1">
                    <mxGeometry x="80" y="120" width="460" height="310" as="geometry"/>
                </mxCell>
            </root>
        </mxGraphModel>
    </diagram>
</mxfile>